<svg xmlns="http://www.w3.org/2000/svg" width="900" height="230" viewBox="0 0 900 230" role="img" aria-label="Profile details">
<rect width="900" height="230" rx="16" fill="#0c0b1b" stroke="#362171"/>
<path d="M0 80H900" stroke="#241b45"/>
<text x="30" y="35" fill="#e5ddff" font-family="Segoe UI,Arial,sans-serif" font-size="20" font-weight="700">Profile details</text>
<text x="30" y="59" fill="#9e94bb" font-family="Segoe UI,Arial,sans-serif" font-size="12">Live GitHub activity · refreshed 2026-08-18 UTC</text>
<rect x="24" y="92" width="204" height="112" rx="12" fill="#171330" stroke="#362171"/>
<circle cx="50" cy="120" r="10" fill="#8d5cff" opacity=".2"/>
<circle cx="50" cy="120" r="4" fill="#8d5cff"/>
<text x="70" y="125" fill="#b58cff" font-family="Segoe UI,Arial,sans-serif" font-size="12" font-weight="600">Public events</text>
<text x="44" y="171" fill="#e5ddff" font-family="Segoe UI,Arial,sans-serif" font-size="28" font-weight="700">100</text>
<text x="44" y="191" fill="#9e94bb" font-family="Segoe UI,Arial,sans-serif" font-size="11">recent activity window</text>
<rect x="240" y="92" width="204" height="112" rx="12" fill="#171330" stroke="#362171"/>
<circle cx="266" cy="120" r="10" fill="#b58cff" opacity=".2"/>
<circle cx="266" cy="120" r="4" fill="#b58cff"/>
<text x="286" y="125" fill="#b58cff" font-family="Segoe UI,Arial,sans-serif" font-size="12" font-weight="600">Push events</text>
<text x="260" y="171" fill="#e5ddff" font-family="Segoe UI,Arial,sans-serif" font-size="28" font-weight="700">95</text>
<text x="260" y="191" fill="#9e94bb" font-family="Segoe UI,Arial,sans-serif" font-size="11">recent pushes</text>
<rect x="456" y="92" width="204" height="112" rx="12" fill="#171330" stroke="#362171"/>
<circle cx="482" cy="120" r="10" fill="#7047c7" opacity=".2"/>
<circle cx="482" cy="120" r="4" fill="#7047c7"/>
<text x="502" y="125" fill="#b58cff" font-family="Segoe UI,Arial,sans-serif" font-size="12" font-weight="600">Languages</text>
<text x="476" y="171" fill="#e5ddff" font-family="Segoe UI,Arial,sans-serif" font-size="28" font-weight="700">14</text>
<text x="476" y="191" fill="#9e94bb" font-family="Segoe UI,Arial,sans-serif" font-size="11">detected in repos</text>
<rect x="672" y="92" width="204" height="112" rx="12" fill="#171330" stroke="#362171"/>
<circle cx="698" cy="120" r="10" fill="#c18cff" opacity=".2"/>
<circle cx="698" cy="120" r="4" fill="#c18cff"/>
<text x="718" y="125" fill="#b58cff" font-family="Segoe UI,Arial,sans-serif" font-size="12" font-weight="600">Profile</text>
<text x="692" y="171" fill="#e5ddff" font-family="Segoe UI,Arial,sans-serif" font-size="28" font-weight="700">rutaabali3</text>
<text x="692" y="191" fill="#9e94bb" font-family="Segoe UI,Arial,sans-serif" font-size="11">GitHub identity</text>
</svg>
